<?xml version="1.0" encoding="UTF-8" standalone="no"?>
<svg
   id="Layer_1"
   version="1.1"
   viewBox="0 0 1080 1080"
   sodipodi:docname="FITA_Logo_Color_sq.svg"
   inkscape:version="1.4.3 (0d15f75042, 2025-12-25)"
   xmlns:inkscape="http://www.inkscape.org/namespaces/inkscape"
   xmlns:sodipodi="http://sodipodi.sourceforge.net/DTD/sodipodi-0.dtd"
   xmlns="http://www.w3.org/2000/svg"
   xmlns:svg="http://www.w3.org/2000/svg">
  <sodipodi:namedview
     id="namedview4"
     pagecolor="#ffffff"
     bordercolor="#000000"
     borderopacity="0.25"
     inkscape:showpageshadow="2"
     inkscape:pageopacity="0.0"
     inkscape:pagecheckerboard="0"
     inkscape:deskcolor="#d1d1d1"
     inkscape:zoom="1.0768519"
     inkscape:cx="540"
     inkscape:cy="540"
     inkscape:window-width="2560"
     inkscape:window-height="1371"
     inkscape:window-x="0"
     inkscape:window-y="0"
     inkscape:window-maximized="1"
     inkscape:current-layer="Layer_1" />
  <!-- Generator: Adobe Illustrator 30.0.0, SVG Export Plug-In . SVG Version: 2.1.1 Build 123)  -->
  <defs
     id="defs4">
    <style
       id="style1">
      .st0 {
        fill: none;
      }

      .st1 {
        fill: #00004d;
      }

      .st2 {
        fill: url(#linear-gradient);
      }

      .st3 {
        clip-path: url(#clippath);
      }
    </style>
    <clipPath
       id="clippath">
      <polygon
         class="st0"
         points="251.8 354.4 251.8 354.7 251.6 354.5 190.6 415.6 251.6 476.6 251.8 476.4 251.8 476.6 251.8 476.7 251.8 477.1 251.6 476.9 190.6 537.9 251.5 598.8 190.7 659.6 251.8 720.6 312.8 659.6 252.1 598.8 375.1 598.8 375.2 598.9 436.2 537.9 375.2 476.9 375.2 476.7 498.8 476.7 498.8 476.6 559.8 415.6 498.8 354.5 498.8 354.4 251.8 354.4"
         id="polygon1" />
    </clipPath>
    <linearGradient
       id="linear-gradient"
       x1="-51.7"
       y1="924.8"
       x2="-47.3"
       y2="924.8"
       gradientTransform="matrix(-118.3,0,0,-118.3,-5481.1,109924.9)"
       gradientUnits="userSpaceOnUse">
      <stop
         offset="0"
         stop-color="#008dff"
         id="stop1" />
      <stop
         offset="0"
         stop-color="#008dff"
         id="stop2" />
      <stop
         offset=".9"
         stop-color="#44f2ab"
         id="stop3" />
      <stop
         offset="1"
         stop-color="#44f2ab"
         id="stop4" />
    </linearGradient>
  </defs>
  <g
     class="st3"
     clip-path="url(#clippath)"
     id="g4"
     transform="matrix(2.4783315,0,0,2.4783315,-389.86998,-792.10318)">
    <rect
       class="st2"
       x="115.2"
       y="277.5"
       width="520"
       height="520"
       transform="rotate(-45,375.14404,537.51025)"
       id="rect4"
       style="fill:url(#linear-gradient)" />
  </g>
</svg>
