<?xml version="1.0" encoding="iso-8859-1"?>
<!-- Uploaded to: SVG Repo, www.svgrepo.com, Generator: SVG Repo Mixer Tools -->
<svg fill="#000000" height="800px" width="800px" version="1.1" id="Layer_1" xmlns="http://www.w3.org/2000/svg" xmlns:xlink="http://www.w3.org/1999/xlink" 
	 viewBox="0 0 512 512" xml:space="preserve">
<g>
	<g>
		<g>
			<path d="M128.203,271.836c30.861,0,55.967-25.106,55.967-55.967c0-30.861-25.106-55.967-55.967-55.967
				s-55.968,25.106-55.968,55.967C72.235,246.73,97.342,271.836,128.203,271.836z M128.203,256.216
				c-11.346,0-21.604-4.714-28.942-12.277c7.532-7.759,17.912-12.233,28.942-12.233s21.41,4.473,28.942,12.233
				C149.807,251.501,139.548,256.216,128.203,256.216z M128.203,175.523c22.248,0,40.346,18.1,40.346,40.346
				c0,5.182-0.992,10.134-2.78,14.688c-10.173-9.221-23.489-14.472-37.566-14.472s-27.393,5.251-37.567,14.472
				c-1.788-4.555-2.78-9.507-2.78-14.688C87.856,193.622,105.955,175.523,128.203,175.523z"/>
			<path d="M491.405,232.917l17.047-17.048l-17.047-17.047L512,167.929H368.988c-26.435,0-47.941,21.505-47.941,47.94v80.262
				c0,12.442,4.767,23.791,12.567,32.321h-81.319c2.73-10.505,4.11-21.334,4.11-32.321v-88.288h-0.258
				c-4.158-66.966-59.949-120.176-127.944-120.176S4.416,140.878,0.259,207.843H0v88.288c0,70.691,57.511,128.202,128.203,128.202
				H385.04c26.435,0,47.94-21.506,47.94-47.941v-80.261c0-12.441-4.763-23.791-12.563-32.321h91.581L491.405,232.917z
				 M128.203,103.287c62.078,0,112.582,50.504,112.582,112.582c0,62.079-50.504,112.583-112.582,112.583
				S15.62,277.948,15.62,215.869C15.62,153.791,66.124,103.287,128.203,103.287z M240.785,277.15v18.981
				c0,11.033-1.594,21.878-4.719,32.321h-46.582C211.105,316.635,228.968,298.772,240.785,277.15z M417.36,376.392L417.36,376.392
				c0,17.822-14.499,32.321-32.32,32.321H128.203C66.124,408.714,15.62,358.209,15.62,296.131V277.15
				c21.772,39.839,64.073,66.922,112.583,66.922H385.04c12.442,0,23.79-4.766,32.32-12.567V376.392z M385.04,328.452h-16.053
				c-17.822,0-32.321-14.499-32.321-32.321v-44.888c8.53,7.801,19.879,12.567,32.321,12.567h16.053
				c17.821,0,32.32,14.499,32.32,32.321C417.36,313.953,402.861,328.452,385.04,328.452z M482.814,248.19H368.988
				c-17.822,0-32.321-14.499-32.321-32.321c0-17.821,14.499-32.32,32.321-32.32h113.826l-11.51,17.264l15.058,15.056l-15.058,15.057
				L482.814,248.19z"/>
		</g>
	</g>
</g>
</svg>